<mxfile host="app.diagrams.net" modified="2021-09-19T15:41:47.482Z" agent="5.0 (Macintosh; Intel Mac OS X 10_15_7) AppleWebKit/537.36 (KHTML, like Gecko) Chrome/91.0.4472.106 YaBrowser/21.6.0.1108 Yowser/2.5 Safari/537.36" etag="QwlcKsczV56RY41BzRxQ" version="15.2.9" type="github">
  <diagram id="h7LhwIZn7rb5tLuHhgwg" name="Page-1">
    <mxGraphModel dx="2028" dy="1803" grid="1" gridSize="10" guides="1" tooltips="1" connect="1" arrows="1" fold="1" page="1" pageScale="1" pageWidth="1654" pageHeight="2336" math="0" shadow="0">
      <root>
        <mxCell id="0" />
        <mxCell id="1" parent="0" />
        <mxCell id="-UEbHcT61im6ldXxAbTl-30" style="edgeStyle=orthogonalEdgeStyle;rounded=0;orthogonalLoop=1;jettySize=auto;html=1;exitX=0;exitY=0.75;exitDx=0;exitDy=0;entryX=0.35;entryY=0.03;entryDx=0;entryDy=0;entryPerimeter=0;fontSize=13;" edge="1" parent="1" source="-UEbHcT61im6ldXxAbTl-1" target="-UEbHcT61im6ldXxAbTl-2">
          <mxGeometry relative="1" as="geometry" />
        </mxCell>
        <mxCell id="-UEbHcT61im6ldXxAbTl-44" style="edgeStyle=orthogonalEdgeStyle;rounded=0;orthogonalLoop=1;jettySize=auto;html=1;exitX=0.75;exitY=1;exitDx=0;exitDy=0;entryX=0.5;entryY=0;entryDx=0;entryDy=0;fontSize=13;" edge="1" parent="1" source="-UEbHcT61im6ldXxAbTl-1" target="-UEbHcT61im6ldXxAbTl-3">
          <mxGeometry relative="1" as="geometry" />
        </mxCell>
        <mxCell id="-UEbHcT61im6ldXxAbTl-47" style="edgeStyle=orthogonalEdgeStyle;rounded=0;orthogonalLoop=1;jettySize=auto;html=1;exitX=0.25;exitY=1;exitDx=0;exitDy=0;entryX=0.829;entryY=0.012;entryDx=0;entryDy=0;entryPerimeter=0;fontSize=13;" edge="1" parent="1" source="-UEbHcT61im6ldXxAbTl-1" target="-UEbHcT61im6ldXxAbTl-8">
          <mxGeometry relative="1" as="geometry">
            <Array as="points">
              <mxPoint x="349" y="50" />
            </Array>
          </mxGeometry>
        </mxCell>
        <mxCell id="-UEbHcT61im6ldXxAbTl-50" style="edgeStyle=orthogonalEdgeStyle;rounded=0;orthogonalLoop=1;jettySize=auto;html=1;entryX=0.5;entryY=0;entryDx=0;entryDy=0;fontSize=11;exitX=0.895;exitY=1.067;exitDx=0;exitDy=0;exitPerimeter=0;" edge="1" parent="1" source="-UEbHcT61im6ldXxAbTl-1" target="-UEbHcT61im6ldXxAbTl-4">
          <mxGeometry relative="1" as="geometry">
            <mxPoint x="460" y="60" as="sourcePoint" />
            <Array as="points">
              <mxPoint x="454" y="70" />
              <mxPoint x="583" y="70" />
              <mxPoint x="583" y="170" />
            </Array>
          </mxGeometry>
        </mxCell>
        <mxCell id="-UEbHcT61im6ldXxAbTl-95" style="edgeStyle=orthogonalEdgeStyle;rounded=0;orthogonalLoop=1;jettySize=auto;html=1;exitX=1;exitY=0.5;exitDx=0;exitDy=0;entryX=0;entryY=0.5;entryDx=0;entryDy=0;fontSize=13;" edge="1" parent="1" source="-UEbHcT61im6ldXxAbTl-1" target="-UEbHcT61im6ldXxAbTl-5">
          <mxGeometry relative="1" as="geometry">
            <Array as="points">
              <mxPoint x="470" y="40" />
              <mxPoint x="600" y="40" />
              <mxPoint x="600" y="90" />
              <mxPoint x="670" y="90" />
            </Array>
          </mxGeometry>
        </mxCell>
        <mxCell id="-UEbHcT61im6ldXxAbTl-99" style="edgeStyle=orthogonalEdgeStyle;rounded=0;orthogonalLoop=1;jettySize=auto;html=1;exitX=1;exitY=0.25;exitDx=0;exitDy=0;fontSize=13;" edge="1" parent="1" source="-UEbHcT61im6ldXxAbTl-1" target="-UEbHcT61im6ldXxAbTl-6">
          <mxGeometry relative="1" as="geometry" />
        </mxCell>
        <mxCell id="-UEbHcT61im6ldXxAbTl-103" style="edgeStyle=orthogonalEdgeStyle;rounded=0;orthogonalLoop=1;jettySize=auto;html=1;exitX=1;exitY=0.5;exitDx=0;exitDy=0;entryX=0.5;entryY=0;entryDx=0;entryDy=0;fontSize=13;" edge="1" parent="1" source="-UEbHcT61im6ldXxAbTl-1" target="-UEbHcT61im6ldXxAbTl-7">
          <mxGeometry relative="1" as="geometry" />
        </mxCell>
        <mxCell id="-UEbHcT61im6ldXxAbTl-113" style="edgeStyle=orthogonalEdgeStyle;rounded=0;orthogonalLoop=1;jettySize=auto;html=1;exitX=1;exitY=0;exitDx=0;exitDy=0;fontSize=12;" edge="1" parent="1" source="-UEbHcT61im6ldXxAbTl-1" target="-UEbHcT61im6ldXxAbTl-9">
          <mxGeometry relative="1" as="geometry">
            <Array as="points">
              <mxPoint x="1170" y="10" />
            </Array>
          </mxGeometry>
        </mxCell>
        <mxCell id="-UEbHcT61im6ldXxAbTl-1" value="&lt;font style=&quot;font-size: 13px&quot;&gt;Директор&lt;/font&gt;" style="rounded=1;whiteSpace=wrap;html=1;" vertex="1" parent="1">
          <mxGeometry x="320" y="10" width="150" height="40" as="geometry" />
        </mxCell>
        <mxCell id="-UEbHcT61im6ldXxAbTl-46" style="edgeStyle=orthogonalEdgeStyle;rounded=0;orthogonalLoop=1;jettySize=auto;html=1;exitX=1;exitY=0.75;exitDx=0;exitDy=0;entryX=-0.033;entryY=0.365;entryDx=0;entryDy=0;entryPerimeter=0;fontSize=13;" edge="1" parent="1" source="-UEbHcT61im6ldXxAbTl-2" target="-UEbHcT61im6ldXxAbTl-8">
          <mxGeometry relative="1" as="geometry" />
        </mxCell>
        <mxCell id="-UEbHcT61im6ldXxAbTl-53" style="edgeStyle=orthogonalEdgeStyle;rounded=0;orthogonalLoop=1;jettySize=auto;html=1;exitX=1;exitY=0.25;exitDx=0;exitDy=0;fontSize=11;" edge="1" parent="1" source="-UEbHcT61im6ldXxAbTl-2" target="-UEbHcT61im6ldXxAbTl-4">
          <mxGeometry relative="1" as="geometry">
            <Array as="points">
              <mxPoint x="210" y="185" />
            </Array>
          </mxGeometry>
        </mxCell>
        <mxCell id="-UEbHcT61im6ldXxAbTl-2" value="&lt;span style=&quot;background-color: rgb(212 , 225 , 245)&quot;&gt;Ученый совет&lt;/span&gt;" style="rounded=1;whiteSpace=wrap;html=1;fontSize=13;verticalAlign=top;" vertex="1" parent="1">
          <mxGeometry x="10" y="135" width="200" height="165" as="geometry" />
        </mxCell>
        <mxCell id="-UEbHcT61im6ldXxAbTl-43" style="edgeStyle=orthogonalEdgeStyle;rounded=0;orthogonalLoop=1;jettySize=auto;html=1;exitX=0;exitY=0.25;exitDx=0;exitDy=0;entryX=0.5;entryY=0;entryDx=0;entryDy=0;fontSize=13;" edge="1" parent="1" source="-UEbHcT61im6ldXxAbTl-3" target="-UEbHcT61im6ldXxAbTl-2">
          <mxGeometry relative="1" as="geometry" />
        </mxCell>
        <mxCell id="-UEbHcT61im6ldXxAbTl-89" style="edgeStyle=orthogonalEdgeStyle;rounded=0;orthogonalLoop=1;jettySize=auto;html=1;exitX=0.5;exitY=1;exitDx=0;exitDy=0;entryX=0;entryY=0.25;entryDx=0;entryDy=0;fontSize=13;" edge="1" parent="1" source="-UEbHcT61im6ldXxAbTl-3" target="-UEbHcT61im6ldXxAbTl-63">
          <mxGeometry relative="1" as="geometry" />
        </mxCell>
        <mxCell id="-UEbHcT61im6ldXxAbTl-90" style="edgeStyle=orthogonalEdgeStyle;rounded=0;orthogonalLoop=1;jettySize=auto;html=1;exitX=0.5;exitY=1;exitDx=0;exitDy=0;fontSize=13;entryX=0;entryY=0.25;entryDx=0;entryDy=0;" edge="1" parent="1" source="-UEbHcT61im6ldXxAbTl-3" target="-UEbHcT61im6ldXxAbTl-67">
          <mxGeometry relative="1" as="geometry">
            <mxPoint x="424.82352941176464" y="440" as="targetPoint" />
          </mxGeometry>
        </mxCell>
        <mxCell id="-UEbHcT61im6ldXxAbTl-91" style="edgeStyle=orthogonalEdgeStyle;rounded=0;orthogonalLoop=1;jettySize=auto;html=1;exitX=0.5;exitY=1;exitDx=0;exitDy=0;entryX=0;entryY=0.6;entryDx=0;entryDy=0;entryPerimeter=0;fontSize=13;" edge="1" parent="1" source="-UEbHcT61im6ldXxAbTl-3" target="-UEbHcT61im6ldXxAbTl-80">
          <mxGeometry relative="1" as="geometry" />
        </mxCell>
        <mxCell id="-UEbHcT61im6ldXxAbTl-107" style="edgeStyle=orthogonalEdgeStyle;rounded=0;orthogonalLoop=1;jettySize=auto;html=1;exitX=1;exitY=0.5;exitDx=0;exitDy=0;entryX=0.75;entryY=1;entryDx=0;entryDy=0;fontSize=13;" edge="1" parent="1" source="-UEbHcT61im6ldXxAbTl-3" target="-UEbHcT61im6ldXxAbTl-7">
          <mxGeometry relative="1" as="geometry">
            <Array as="points">
              <mxPoint x="650" y="120" />
              <mxPoint x="650" y="150" />
              <mxPoint x="1060" y="150" />
            </Array>
          </mxGeometry>
        </mxCell>
        <mxCell id="-UEbHcT61im6ldXxAbTl-118" style="edgeStyle=orthogonalEdgeStyle;rounded=0;orthogonalLoop=1;jettySize=auto;html=1;exitX=1;exitY=1;exitDx=0;exitDy=0;entryX=0.693;entryY=-0.002;entryDx=0;entryDy=0;entryPerimeter=0;fontSize=12;" edge="1" parent="1" source="-UEbHcT61im6ldXxAbTl-3" target="-UEbHcT61im6ldXxAbTl-110">
          <mxGeometry relative="1" as="geometry">
            <Array as="points">
              <mxPoint x="1034" y="160" />
            </Array>
          </mxGeometry>
        </mxCell>
        <mxCell id="-UEbHcT61im6ldXxAbTl-122" style="edgeStyle=orthogonalEdgeStyle;rounded=0;orthogonalLoop=1;jettySize=auto;html=1;exitX=1;exitY=1;exitDx=0;exitDy=0;entryX=0.614;entryY=-0.035;entryDx=0;entryDy=0;entryPerimeter=0;fontSize=12;" edge="1" parent="1" source="-UEbHcT61im6ldXxAbTl-3" target="-UEbHcT61im6ldXxAbTl-108">
          <mxGeometry relative="1" as="geometry">
            <Array as="points">
              <mxPoint x="1184" y="160" />
            </Array>
          </mxGeometry>
        </mxCell>
        <mxCell id="-UEbHcT61im6ldXxAbTl-123" style="edgeStyle=orthogonalEdgeStyle;rounded=0;orthogonalLoop=1;jettySize=auto;html=1;exitX=1;exitY=1;exitDx=0;exitDy=0;entryX=0.5;entryY=0;entryDx=0;entryDy=0;fontSize=12;" edge="1" parent="1" source="-UEbHcT61im6ldXxAbTl-3" target="-UEbHcT61im6ldXxAbTl-109">
          <mxGeometry relative="1" as="geometry">
            <Array as="points">
              <mxPoint x="1305" y="160" />
            </Array>
          </mxGeometry>
        </mxCell>
        <mxCell id="-UEbHcT61im6ldXxAbTl-124" style="edgeStyle=orthogonalEdgeStyle;rounded=0;orthogonalLoop=1;jettySize=auto;html=1;exitX=1;exitY=1;exitDx=0;exitDy=0;fontSize=12;" edge="1" parent="1" source="-UEbHcT61im6ldXxAbTl-3" target="-UEbHcT61im6ldXxAbTl-111">
          <mxGeometry relative="1" as="geometry">
            <Array as="points">
              <mxPoint x="1450" y="160" />
            </Array>
          </mxGeometry>
        </mxCell>
        <mxCell id="-UEbHcT61im6ldXxAbTl-3" value="&lt;span style=&quot;color: rgb(34 , 34 , 34) ; font-family: &amp;#34;pt sans&amp;#34; , sans-serif ; font-size: 14px ; text-align: justify ; background-color: rgb(255 , 255 , 255)&quot;&gt;Заместитель директора по научной деятельности&lt;/span&gt;&lt;span style=&quot;color: rgb(34 , 34 , 34) ; font-family: &amp;#34;pt sans&amp;#34; , sans-serif ; font-size: 14px ; text-align: justify ; background-color: rgb(255 , 255 , 255)&quot;&gt;&amp;nbsp;&lt;/span&gt;" style="rounded=1;whiteSpace=wrap;html=1;" vertex="1" parent="1">
          <mxGeometry x="360" y="80" width="130" height="80" as="geometry" />
        </mxCell>
        <mxCell id="-UEbHcT61im6ldXxAbTl-86" style="edgeStyle=orthogonalEdgeStyle;rounded=0;orthogonalLoop=1;jettySize=auto;html=1;exitX=0;exitY=0.75;exitDx=0;exitDy=0;fontSize=13;entryX=0;entryY=0.5;entryDx=0;entryDy=0;" edge="1" parent="1" source="-UEbHcT61im6ldXxAbTl-4" target="-UEbHcT61im6ldXxAbTl-63">
          <mxGeometry relative="1" as="geometry">
            <mxPoint x="469.9999999999998" y="460" as="targetPoint" />
            <Array as="points">
              <mxPoint x="440" y="205" />
              <mxPoint x="440" y="455" />
            </Array>
          </mxGeometry>
        </mxCell>
        <mxCell id="-UEbHcT61im6ldXxAbTl-87" style="edgeStyle=orthogonalEdgeStyle;rounded=0;orthogonalLoop=1;jettySize=auto;html=1;exitX=0;exitY=0.75;exitDx=0;exitDy=0;entryX=-0.016;entryY=0.432;entryDx=0;entryDy=0;entryPerimeter=0;fontSize=13;" edge="1" parent="1" source="-UEbHcT61im6ldXxAbTl-4" target="-UEbHcT61im6ldXxAbTl-67">
          <mxGeometry relative="1" as="geometry">
            <Array as="points">
              <mxPoint x="440" y="205" />
              <mxPoint x="440" y="900" />
            </Array>
          </mxGeometry>
        </mxCell>
        <mxCell id="-UEbHcT61im6ldXxAbTl-88" style="edgeStyle=orthogonalEdgeStyle;rounded=0;orthogonalLoop=1;jettySize=auto;html=1;exitX=0;exitY=0.75;exitDx=0;exitDy=0;fontSize=13;" edge="1" parent="1" source="-UEbHcT61im6ldXxAbTl-4">
          <mxGeometry relative="1" as="geometry">
            <mxPoint x="469.9999999999998" y="1450.5882352941176" as="targetPoint" />
            <Array as="points">
              <mxPoint x="440" y="205" />
              <mxPoint x="440" y="1451" />
            </Array>
          </mxGeometry>
        </mxCell>
        <mxCell id="-UEbHcT61im6ldXxAbTl-106" style="edgeStyle=orthogonalEdgeStyle;rounded=0;orthogonalLoop=1;jettySize=auto;html=1;exitX=1;exitY=0.25;exitDx=0;exitDy=0;entryX=0.25;entryY=1;entryDx=0;entryDy=0;fontSize=13;" edge="1" parent="1" source="-UEbHcT61im6ldXxAbTl-4" target="-UEbHcT61im6ldXxAbTl-7">
          <mxGeometry relative="1" as="geometry" />
        </mxCell>
        <mxCell id="-UEbHcT61im6ldXxAbTl-125" style="edgeStyle=orthogonalEdgeStyle;rounded=0;orthogonalLoop=1;jettySize=auto;html=1;exitX=1;exitY=0.5;exitDx=0;exitDy=0;entryX=0.5;entryY=1;entryDx=0;entryDy=0;fontSize=12;" edge="1" parent="1" source="-UEbHcT61im6ldXxAbTl-4" target="-UEbHcT61im6ldXxAbTl-110">
          <mxGeometry relative="1" as="geometry">
            <Array as="points">
              <mxPoint x="770" y="200" />
              <mxPoint x="770" y="320" />
              <mxPoint x="1005" y="320" />
            </Array>
          </mxGeometry>
        </mxCell>
        <mxCell id="-UEbHcT61im6ldXxAbTl-126" style="edgeStyle=orthogonalEdgeStyle;rounded=0;orthogonalLoop=1;jettySize=auto;html=1;exitX=1;exitY=0.5;exitDx=0;exitDy=0;entryX=0.5;entryY=1;entryDx=0;entryDy=0;fontSize=12;" edge="1" parent="1" source="-UEbHcT61im6ldXxAbTl-4" target="-UEbHcT61im6ldXxAbTl-108">
          <mxGeometry relative="1" as="geometry">
            <Array as="points">
              <mxPoint x="770" y="200" />
              <mxPoint x="770" y="320" />
              <mxPoint x="1170" y="320" />
            </Array>
          </mxGeometry>
        </mxCell>
        <mxCell id="-UEbHcT61im6ldXxAbTl-127" style="edgeStyle=orthogonalEdgeStyle;rounded=0;orthogonalLoop=1;jettySize=auto;html=1;exitX=1;exitY=0.5;exitDx=0;exitDy=0;entryX=0.5;entryY=1;entryDx=0;entryDy=0;fontSize=12;" edge="1" parent="1" source="-UEbHcT61im6ldXxAbTl-4" target="-UEbHcT61im6ldXxAbTl-109">
          <mxGeometry relative="1" as="geometry">
            <Array as="points">
              <mxPoint x="770" y="200" />
              <mxPoint x="770" y="320" />
              <mxPoint x="1305" y="320" />
            </Array>
          </mxGeometry>
        </mxCell>
        <mxCell id="-UEbHcT61im6ldXxAbTl-128" style="edgeStyle=orthogonalEdgeStyle;rounded=0;orthogonalLoop=1;jettySize=auto;html=1;exitX=1;exitY=0.5;exitDx=0;exitDy=0;entryX=0.5;entryY=1;entryDx=0;entryDy=0;fontSize=12;" edge="1" parent="1" source="-UEbHcT61im6ldXxAbTl-4" target="-UEbHcT61im6ldXxAbTl-111">
          <mxGeometry relative="1" as="geometry">
            <Array as="points">
              <mxPoint x="770" y="200" />
              <mxPoint x="770" y="320" />
              <mxPoint x="1450" y="320" />
            </Array>
          </mxGeometry>
        </mxCell>
        <mxCell id="-UEbHcT61im6ldXxAbTl-4" value="&lt;span style=&quot;color: rgb(34 , 34 , 34) ; font-family: &amp;#34;pt sans&amp;#34; , sans-serif ; font-size: 14px ; text-align: justify ; background-color: rgb(255 , 255 , 255)&quot;&gt;Заместитель директора по образовательной деятельности&amp;nbsp;&lt;/span&gt;" style="rounded=1;whiteSpace=wrap;html=1;" vertex="1" parent="1">
          <mxGeometry x="505" y="170" width="155" height="60" as="geometry" />
        </mxCell>
        <mxCell id="-UEbHcT61im6ldXxAbTl-92" style="edgeStyle=orthogonalEdgeStyle;rounded=0;orthogonalLoop=1;jettySize=auto;html=1;exitX=0.5;exitY=1;exitDx=0;exitDy=0;entryX=1.011;entryY=0.583;entryDx=0;entryDy=0;entryPerimeter=0;fontSize=13;" edge="1" parent="1" source="-UEbHcT61im6ldXxAbTl-5" target="-UEbHcT61im6ldXxAbTl-63">
          <mxGeometry relative="1" as="geometry">
            <Array as="points">
              <mxPoint x="735" y="491" />
            </Array>
          </mxGeometry>
        </mxCell>
        <mxCell id="-UEbHcT61im6ldXxAbTl-93" style="edgeStyle=orthogonalEdgeStyle;rounded=0;orthogonalLoop=1;jettySize=auto;html=1;exitX=0.5;exitY=1;exitDx=0;exitDy=0;entryX=1.001;entryY=0.649;entryDx=0;entryDy=0;entryPerimeter=0;fontSize=13;" edge="1" parent="1" source="-UEbHcT61im6ldXxAbTl-5" target="-UEbHcT61im6ldXxAbTl-67">
          <mxGeometry relative="1" as="geometry" />
        </mxCell>
        <mxCell id="-UEbHcT61im6ldXxAbTl-98" style="edgeStyle=orthogonalEdgeStyle;rounded=0;orthogonalLoop=1;jettySize=auto;html=1;exitX=0.5;exitY=1;exitDx=0;exitDy=0;entryX=1;entryY=0.75;entryDx=0;entryDy=0;fontSize=13;" edge="1" parent="1" source="-UEbHcT61im6ldXxAbTl-5" target="-UEbHcT61im6ldXxAbTl-80">
          <mxGeometry relative="1" as="geometry" />
        </mxCell>
        <mxCell id="-UEbHcT61im6ldXxAbTl-105" style="edgeStyle=orthogonalEdgeStyle;rounded=0;orthogonalLoop=1;jettySize=auto;html=1;exitX=0.5;exitY=0;exitDx=0;exitDy=0;entryX=0.75;entryY=0;entryDx=0;entryDy=0;fontSize=13;" edge="1" parent="1" source="-UEbHcT61im6ldXxAbTl-5" target="-UEbHcT61im6ldXxAbTl-7">
          <mxGeometry relative="1" as="geometry">
            <Array as="points">
              <mxPoint x="735" y="40" />
              <mxPoint x="1060" y="40" />
            </Array>
          </mxGeometry>
        </mxCell>
        <mxCell id="-UEbHcT61im6ldXxAbTl-134" style="edgeStyle=orthogonalEdgeStyle;rounded=0;orthogonalLoop=1;jettySize=auto;html=1;exitX=0.75;exitY=1;exitDx=0;exitDy=0;entryX=0.589;entryY=1.016;entryDx=0;entryDy=0;entryPerimeter=0;fontSize=12;" edge="1" parent="1" source="-UEbHcT61im6ldXxAbTl-5" target="-UEbHcT61im6ldXxAbTl-112">
          <mxGeometry relative="1" as="geometry">
            <Array as="points">
              <mxPoint x="768" y="390" />
              <mxPoint x="1562" y="390" />
            </Array>
          </mxGeometry>
        </mxCell>
        <mxCell id="-UEbHcT61im6ldXxAbTl-5" value="&lt;span style=&quot;color: rgb(34 , 34 , 34) ; font-family: &amp;#34;pt sans&amp;#34; , sans-serif ; font-size: 14px ; text-align: justify ; background-color: rgb(255 , 255 , 255)&quot;&gt;Заместитель директора по международной деятельности&lt;/span&gt;" style="rounded=1;whiteSpace=wrap;html=1;" vertex="1" parent="1">
          <mxGeometry x="670" y="65" width="130" height="80" as="geometry" />
        </mxCell>
        <mxCell id="-UEbHcT61im6ldXxAbTl-100" style="edgeStyle=orthogonalEdgeStyle;rounded=0;orthogonalLoop=1;jettySize=auto;html=1;exitX=0.5;exitY=1;exitDx=0;exitDy=0;entryX=1.001;entryY=0.529;entryDx=0;entryDy=0;entryPerimeter=0;fontSize=13;" edge="1" parent="1" source="-UEbHcT61im6ldXxAbTl-6" target="-UEbHcT61im6ldXxAbTl-63">
          <mxGeometry relative="1" as="geometry" />
        </mxCell>
        <mxCell id="-UEbHcT61im6ldXxAbTl-101" style="edgeStyle=orthogonalEdgeStyle;rounded=0;orthogonalLoop=1;jettySize=auto;html=1;exitX=0.5;exitY=1;exitDx=0;exitDy=0;entryX=1.001;entryY=0.536;entryDx=0;entryDy=0;entryPerimeter=0;fontSize=13;" edge="1" parent="1" source="-UEbHcT61im6ldXxAbTl-6" target="-UEbHcT61im6ldXxAbTl-67">
          <mxGeometry relative="1" as="geometry" />
        </mxCell>
        <mxCell id="-UEbHcT61im6ldXxAbTl-102" style="edgeStyle=orthogonalEdgeStyle;rounded=0;orthogonalLoop=1;jettySize=auto;html=1;exitX=0.5;exitY=1;exitDx=0;exitDy=0;entryX=1;entryY=0.5;entryDx=0;entryDy=0;fontSize=13;" edge="1" parent="1" source="-UEbHcT61im6ldXxAbTl-6" target="-UEbHcT61im6ldXxAbTl-80">
          <mxGeometry relative="1" as="geometry" />
        </mxCell>
        <mxCell id="-UEbHcT61im6ldXxAbTl-104" style="edgeStyle=orthogonalEdgeStyle;rounded=0;orthogonalLoop=1;jettySize=auto;html=1;exitX=0.75;exitY=0;exitDx=0;exitDy=0;entryX=0.25;entryY=0;entryDx=0;entryDy=0;fontSize=13;" edge="1" parent="1" source="-UEbHcT61im6ldXxAbTl-6" target="-UEbHcT61im6ldXxAbTl-7">
          <mxGeometry relative="1" as="geometry">
            <Array as="points">
              <mxPoint x="924" y="45" />
              <mxPoint x="1000" y="45" />
            </Array>
          </mxGeometry>
        </mxCell>
        <mxCell id="-UEbHcT61im6ldXxAbTl-129" style="edgeStyle=orthogonalEdgeStyle;rounded=0;orthogonalLoop=1;jettySize=auto;html=1;exitX=0.75;exitY=1;exitDx=0;exitDy=0;entryX=0.25;entryY=0.167;entryDx=0;entryDy=0;entryPerimeter=0;fontSize=12;" edge="1" parent="1" source="-UEbHcT61im6ldXxAbTl-6" target="-UEbHcT61im6ldXxAbTl-108">
          <mxGeometry relative="1" as="geometry">
            <Array as="points">
              <mxPoint x="924" y="190" />
              <mxPoint x="1140" y="190" />
            </Array>
          </mxGeometry>
        </mxCell>
        <mxCell id="-UEbHcT61im6ldXxAbTl-130" style="edgeStyle=orthogonalEdgeStyle;rounded=0;orthogonalLoop=1;jettySize=auto;html=1;exitX=0.75;exitY=1;exitDx=0;exitDy=0;entryX=0.75;entryY=0;entryDx=0;entryDy=0;fontSize=12;" edge="1" parent="1" source="-UEbHcT61im6ldXxAbTl-6" target="-UEbHcT61im6ldXxAbTl-109">
          <mxGeometry relative="1" as="geometry">
            <Array as="points">
              <mxPoint x="924" y="190" />
              <mxPoint x="1332" y="190" />
            </Array>
          </mxGeometry>
        </mxCell>
        <mxCell id="-UEbHcT61im6ldXxAbTl-133" style="edgeStyle=orthogonalEdgeStyle;rounded=0;orthogonalLoop=1;jettySize=auto;html=1;exitX=0.75;exitY=1;exitDx=0;exitDy=0;entryX=0.001;entryY=0.924;entryDx=0;entryDy=0;entryPerimeter=0;fontSize=12;" edge="1" parent="1" source="-UEbHcT61im6ldXxAbTl-6" target="-UEbHcT61im6ldXxAbTl-112">
          <mxGeometry relative="1" as="geometry">
            <Array as="points">
              <mxPoint x="924" y="190" />
              <mxPoint x="1480" y="190" />
            </Array>
          </mxGeometry>
        </mxCell>
        <mxCell id="-UEbHcT61im6ldXxAbTl-6" value="&lt;span style=&quot;color: rgb(34 , 34 , 34) ; font-family: &amp;#34;pt sans&amp;#34; , sans-serif ; font-size: 14px ; text-align: justify ; background-color: rgb(255 , 255 , 255)&quot;&gt;Заместитель директора по воспитательной и социальной работе&lt;/span&gt;&lt;span style=&quot;color: rgb(34 , 34 , 34) ; font-family: &amp;#34;pt sans&amp;#34; , sans-serif ; font-size: 14px ; text-align: justify ; background-color: rgb(255 , 255 , 255)&quot;&gt;&amp;nbsp;&lt;/span&gt;" style="rounded=1;whiteSpace=wrap;html=1;" vertex="1" parent="1">
          <mxGeometry x="827" y="65" width="130" height="80" as="geometry" />
        </mxCell>
        <mxCell id="-UEbHcT61im6ldXxAbTl-7" value="&lt;span style=&quot;color: rgb(34 , 34 , 34) ; font-family: &amp;#34;pt sans&amp;#34; , sans-serif ; font-size: 14px ; text-align: justify ; background-color: rgb(255 , 255 , 255)&quot;&gt;Старший диспетчер директората&lt;/span&gt;" style="rounded=1;whiteSpace=wrap;html=1;" vertex="1" parent="1">
          <mxGeometry x="970" y="75" width="120" height="60" as="geometry" />
        </mxCell>
        <mxCell id="-UEbHcT61im6ldXxAbTl-8" value="&lt;h1 class=&quot;menu_header&quot; style=&quot;margin: 0px 0px 3px; padding-top: 10px; background-color: rgb(255, 255, 255); font-weight: normal; font-size: 13px;&quot;&gt;&lt;font style=&quot;font-size: 13px;&quot;&gt;Научно-образовательный отдел&lt;/font&gt;&lt;/h1&gt;" style="rounded=1;whiteSpace=wrap;html=1;align=center;fontSize=13;verticalAlign=middle;" vertex="1" parent="1">
          <mxGeometry x="250" y="230" width="120" height="70" as="geometry" />
        </mxCell>
        <mxCell id="-UEbHcT61im6ldXxAbTl-9" value="Диссертационные советы" style="rounded=1;whiteSpace=wrap;html=1;fontSize=13;" vertex="1" parent="1">
          <mxGeometry x="1110" y="75" width="120" height="60" as="geometry" />
        </mxCell>
        <mxCell id="-UEbHcT61im6ldXxAbTl-10" value="&lt;h1 class=&quot;menu_header&quot; style=&quot;margin: 0px 0px 3px ; padding-top: 10px ; font-weight: normal ; font-size: 13px&quot;&gt;&lt;font style=&quot;font-size: 13px ; background-color: rgb(212 , 225 , 245)&quot;&gt;Учебно-методическая комиссия&lt;/font&gt;&lt;/h1&gt;" style="rounded=1;whiteSpace=wrap;html=1;fontSize=13;align=center;verticalAlign=top;" vertex="1" parent="1">
          <mxGeometry x="20" y="350" width="240" height="190" as="geometry" />
        </mxCell>
        <mxCell id="-UEbHcT61im6ldXxAbTl-14" value="" style="endArrow=classic;html=1;fontSize=14;entryX=0.5;entryY=0;entryDx=0;entryDy=0;exitX=0.423;exitY=0.988;exitDx=0;exitDy=0;exitPerimeter=0;" edge="1" parent="1" source="-UEbHcT61im6ldXxAbTl-2" target="-UEbHcT61im6ldXxAbTl-10">
          <mxGeometry width="50" height="50" relative="1" as="geometry">
            <mxPoint x="80" y="160" as="sourcePoint" />
            <mxPoint x="60" y="160" as="targetPoint" />
          </mxGeometry>
        </mxCell>
        <mxCell id="-UEbHcT61im6ldXxAbTl-25" style="edgeStyle=orthogonalEdgeStyle;rounded=0;orthogonalLoop=1;jettySize=auto;html=1;entryX=0.875;entryY=0;entryDx=0;entryDy=0;entryPerimeter=0;fontSize=13;exitX=1;exitY=0.5;exitDx=0;exitDy=0;" edge="1" parent="1" source="-UEbHcT61im6ldXxAbTl-18" target="-UEbHcT61im6ldXxAbTl-21">
          <mxGeometry relative="1" as="geometry" />
        </mxCell>
        <mxCell id="-UEbHcT61im6ldXxAbTl-26" style="edgeStyle=orthogonalEdgeStyle;rounded=0;orthogonalLoop=1;jettySize=auto;html=1;exitX=0;exitY=0.25;exitDx=0;exitDy=0;entryX=0.25;entryY=0;entryDx=0;entryDy=0;fontSize=13;" edge="1" parent="1" source="-UEbHcT61im6ldXxAbTl-18" target="-UEbHcT61im6ldXxAbTl-19">
          <mxGeometry relative="1" as="geometry">
            <Array as="points">
              <mxPoint x="48" y="170" />
            </Array>
          </mxGeometry>
        </mxCell>
        <mxCell id="-UEbHcT61im6ldXxAbTl-18" value="Председатель комиссии" style="rounded=0;whiteSpace=wrap;html=1;fontSize=13;align=center;verticalAlign=top;" vertex="1" parent="1">
          <mxGeometry x="70" y="160" width="95" height="40" as="geometry" />
        </mxCell>
        <mxCell id="-UEbHcT61im6ldXxAbTl-19" value="Члены комиссии" style="rounded=0;whiteSpace=wrap;html=1;fontSize=13;align=center;verticalAlign=top;" vertex="1" parent="1">
          <mxGeometry x="20" y="210" width="110" height="30" as="geometry" />
        </mxCell>
        <mxCell id="-UEbHcT61im6ldXxAbTl-21" value="Секретарь" style="rounded=0;whiteSpace=wrap;html=1;fontSize=13;align=center;verticalAlign=top;" vertex="1" parent="1">
          <mxGeometry x="120" y="250" width="80" height="30" as="geometry" />
        </mxCell>
        <mxCell id="-UEbHcT61im6ldXxAbTl-22" style="edgeStyle=orthogonalEdgeStyle;rounded=0;orthogonalLoop=1;jettySize=auto;html=1;exitX=0.5;exitY=1;exitDx=0;exitDy=0;fontSize=13;" edge="1" parent="1" source="-UEbHcT61im6ldXxAbTl-21" target="-UEbHcT61im6ldXxAbTl-21">
          <mxGeometry relative="1" as="geometry" />
        </mxCell>
        <mxCell id="-UEbHcT61im6ldXxAbTl-40" style="edgeStyle=orthogonalEdgeStyle;rounded=0;orthogonalLoop=1;jettySize=auto;html=1;exitX=0;exitY=0.25;exitDx=0;exitDy=0;entryX=0.25;entryY=0;entryDx=0;entryDy=0;fontSize=13;" edge="1" parent="1" source="-UEbHcT61im6ldXxAbTl-31" target="-UEbHcT61im6ldXxAbTl-36">
          <mxGeometry relative="1" as="geometry" />
        </mxCell>
        <mxCell id="-UEbHcT61im6ldXxAbTl-41" style="edgeStyle=orthogonalEdgeStyle;rounded=0;orthogonalLoop=1;jettySize=auto;html=1;exitX=0.75;exitY=1;exitDx=0;exitDy=0;entryX=0.25;entryY=0;entryDx=0;entryDy=0;fontSize=13;" edge="1" parent="1" source="-UEbHcT61im6ldXxAbTl-31" target="-UEbHcT61im6ldXxAbTl-34">
          <mxGeometry relative="1" as="geometry" />
        </mxCell>
        <mxCell id="-UEbHcT61im6ldXxAbTl-31" value="Председатель комиссии" style="rounded=0;whiteSpace=wrap;html=1;fontSize=13;align=center;verticalAlign=top;" vertex="1" parent="1">
          <mxGeometry x="100" y="390" width="100" height="40" as="geometry" />
        </mxCell>
        <mxCell id="-UEbHcT61im6ldXxAbTl-34" value="Секретарь" style="rounded=0;whiteSpace=wrap;html=1;fontSize=13;align=center;verticalAlign=top;" vertex="1" parent="1">
          <mxGeometry x="170" y="465" width="80" height="30" as="geometry" />
        </mxCell>
        <mxCell id="-UEbHcT61im6ldXxAbTl-36" value="Члены комиссии (представители кафедр)" style="rounded=0;whiteSpace=wrap;html=1;fontSize=13;align=center;verticalAlign=top;" vertex="1" parent="1">
          <mxGeometry x="40" y="450" width="120" height="60" as="geometry" />
        </mxCell>
        <mxCell id="-UEbHcT61im6ldXxAbTl-37" style="edgeStyle=orthogonalEdgeStyle;rounded=0;orthogonalLoop=1;jettySize=auto;html=1;exitX=0.5;exitY=1;exitDx=0;exitDy=0;fontSize=13;" edge="1" parent="1" source="-UEbHcT61im6ldXxAbTl-10" target="-UEbHcT61im6ldXxAbTl-10">
          <mxGeometry relative="1" as="geometry" />
        </mxCell>
        <mxCell id="-UEbHcT61im6ldXxAbTl-38" style="edgeStyle=orthogonalEdgeStyle;rounded=0;orthogonalLoop=1;jettySize=auto;html=1;exitX=0.5;exitY=1;exitDx=0;exitDy=0;fontSize=13;" edge="1" parent="1" source="-UEbHcT61im6ldXxAbTl-10" target="-UEbHcT61im6ldXxAbTl-10">
          <mxGeometry relative="1" as="geometry" />
        </mxCell>
        <mxCell id="-UEbHcT61im6ldXxAbTl-63" value="" style="rounded=1;whiteSpace=wrap;html=1;fontSize=13;align=center;verticalAlign=top;" vertex="1" parent="1">
          <mxGeometry x="480" y="240" width="220" height="430" as="geometry" />
        </mxCell>
        <mxCell id="-UEbHcT61im6ldXxAbTl-56" value="&lt;h1 class=&quot;menu_header&quot; style=&quot;margin: 0px 0px 3px ; padding-top: 10px ; font-size: 13px ; font-family: &amp;#34;pt sans&amp;#34; , sans-serif ; background-color: rgb(255 , 255 , 255) ; font-weight: normal&quot;&gt;Кафедра востоковедения, африканистики и исламоведения&lt;/h1&gt;" style="rounded=0;whiteSpace=wrap;html=1;fontSize=11;align=center;verticalAlign=top;" vertex="1" parent="1">
          <mxGeometry x="505" y="328" width="155" height="70" as="geometry" />
        </mxCell>
        <mxCell id="-UEbHcT61im6ldXxAbTl-57" value="&lt;h1 class=&quot;menu_header&quot; style=&quot;margin: 0px 0px 3px; padding-top: 10px; font-family: &amp;quot;pt sans&amp;quot;, sans-serif; background-color: rgb(255, 255, 255); font-weight: normal; font-size: 13px;&quot;&gt;Кафедра международных отношений, мировой политики и дипломатии&lt;/h1&gt;" style="rounded=0;whiteSpace=wrap;html=1;fontSize=11;align=center;verticalAlign=top;" vertex="1" parent="1">
          <mxGeometry x="505" y="250" width="160" height="70" as="geometry" />
        </mxCell>
        <mxCell id="-UEbHcT61im6ldXxAbTl-58" value="&lt;h1 class=&quot;menu_header&quot; style=&quot;margin: 0px 0px 3px; padding-top: 10px; font-size: 13px; font-family: &amp;quot;pt sans&amp;quot;, sans-serif; background-color: rgb(255, 255, 255); font-weight: normal;&quot;&gt;Кафедра алтаистики и китаеведения&lt;/h1&gt;" style="rounded=0;whiteSpace=wrap;html=1;fontSize=11;align=center;verticalAlign=top;" vertex="1" parent="1">
          <mxGeometry x="505" y="405" width="120" height="60" as="geometry" />
        </mxCell>
        <mxCell id="-UEbHcT61im6ldXxAbTl-59" value="&lt;meta charset=&quot;utf-8&quot; style=&quot;font-size: 13px;&quot;&gt;&lt;h1 class=&quot;menu_header&quot; style=&quot;color: rgb(0, 0, 0); margin: 0px 0px 3px; padding-top: 10px; font-size: 13px; font-family: &amp;quot;pt sans&amp;quot;, sans-serif; font-style: normal; letter-spacing: normal; text-indent: 0px; text-transform: none; word-spacing: 0px; background-color: rgb(255, 255, 255); font-weight: normal;&quot;&gt;Кафедра международных экономических отношений&lt;/h1&gt;" style="rounded=0;whiteSpace=wrap;html=1;fontSize=13;align=center;verticalAlign=top;" vertex="1" parent="1">
          <mxGeometry x="505" y="470" width="150" height="70" as="geometry" />
        </mxCell>
        <mxCell id="-UEbHcT61im6ldXxAbTl-60" value="&lt;span style=&quot;color: rgb(34 , 34 , 34) ; font-family: &amp;#34;pt sans&amp;#34; , sans-serif ; font-size: 14px ; text-align: justify ; background-color: rgb(255 , 255 , 255)&quot;&gt;Кафедра по изучению исламской цивилизации&amp;nbsp;&lt;/span&gt;" style="rounded=0;whiteSpace=wrap;html=1;fontSize=13;align=center;verticalAlign=top;" vertex="1" parent="1">
          <mxGeometry x="505" y="550" width="155" height="50" as="geometry" />
        </mxCell>
        <mxCell id="-UEbHcT61im6ldXxAbTl-61" value="&lt;span style=&quot;color: rgb(34 , 34 , 34) ; font-family: &amp;#34;pt sans&amp;#34; , sans-serif ; font-size: 14px ; text-align: justify ; background-color: rgb(255 , 255 , 255)&quot;&gt;Кафедра письменного наследия Востока&lt;/span&gt;" style="rounded=0;whiteSpace=wrap;html=1;fontSize=13;align=center;verticalAlign=top;" vertex="1" parent="1">
          <mxGeometry x="505" y="610" width="155" height="50" as="geometry" />
        </mxCell>
        <mxCell id="-UEbHcT61im6ldXxAbTl-64" value="&lt;h1 class=&quot;menu_header&quot; style=&quot;margin: 0px 0px 3px; padding-top: 10px; font-family: &amp;quot;pt sans&amp;quot;, sans-serif; text-align: left; font-weight: normal; font-size: 14px;&quot;&gt;Высшая школа международных отношений и востоковедения&lt;/h1&gt;" style="text;html=1;strokeColor=none;fillColor=none;align=center;verticalAlign=middle;whiteSpace=wrap;rounded=0;fontSize=14;rotation=90;labelBackgroundColor=#D4E1F5;" vertex="1" parent="1">
          <mxGeometry x="480" y="445" width="405" height="20" as="geometry" />
        </mxCell>
        <mxCell id="-UEbHcT61im6ldXxAbTl-67" value="" style="rounded=1;whiteSpace=wrap;html=1;labelBackgroundColor=#D4E1F5;fontSize=13;align=center;verticalAlign=top;" vertex="1" parent="1">
          <mxGeometry x="480" y="680" width="220" height="510" as="geometry" />
        </mxCell>
        <mxCell id="-UEbHcT61im6ldXxAbTl-68" value="&lt;h1 class=&quot;menu_header&quot; style=&quot;margin: 0px 0px 3px; padding-top: 10px; font-family: &amp;quot;pt sans&amp;quot;, sans-serif; font-weight: normal; font-size: 12px;&quot;&gt;Кафедра археологии и всеобщей истории&lt;/h1&gt;" style="rounded=0;whiteSpace=wrap;html=1;labelBackgroundColor=none;fontSize=13;align=center;verticalAlign=top;" vertex="1" parent="1">
          <mxGeometry x="505" y="690" width="125" height="50" as="geometry" />
        </mxCell>
        <mxCell id="-UEbHcT61im6ldXxAbTl-70" value="&lt;h1 class=&quot;menu_header&quot; style=&quot;margin: 0px 0px 3px ; padding-top: 10px ; font-family: &amp;#34;pt sans&amp;#34; , sans-serif ; text-align: left ; background-color: rgb(255 , 255 , 255) ; font-weight: normal ; font-size: 12px&quot;&gt;Кафедра всемирного культурного наследия&lt;/h1&gt;" style="rounded=0;whiteSpace=wrap;html=1;labelBackgroundColor=none;fontSize=13;align=center;verticalAlign=top;" vertex="1" parent="1">
          <mxGeometry x="505" y="750" width="120" height="50" as="geometry" />
        </mxCell>
        <mxCell id="-UEbHcT61im6ldXxAbTl-72" value="&lt;h1 class=&quot;menu_header&quot; style=&quot;margin: 0px 0px 3px ; padding-top: 10px ; font-family: &amp;#34;pt sans&amp;#34; , sans-serif ; background-color: rgb(255 , 255 , 255) ; font-weight: normal ; font-size: 12px&quot;&gt;Кафедра отечественной истории&lt;/h1&gt;" style="rounded=0;whiteSpace=wrap;html=1;labelBackgroundColor=none;fontSize=13;align=center;verticalAlign=top;" vertex="1" parent="1">
          <mxGeometry x="505" y="810" width="130" height="50" as="geometry" />
        </mxCell>
        <mxCell id="-UEbHcT61im6ldXxAbTl-73" value="&lt;h1 class=&quot;menu_header&quot; style=&quot;margin: 0px 0px 3px; padding-top: 10px; font-family: &amp;quot;pt sans&amp;quot;, sans-serif; background-color: rgb(255, 255, 255); font-weight: normal; font-size: 12px;&quot;&gt;Кафедра регионоведения и евразийских исследований&lt;/h1&gt;" style="rounded=0;whiteSpace=wrap;html=1;labelBackgroundColor=none;fontSize=13;align=center;verticalAlign=top;" vertex="1" parent="1">
          <mxGeometry x="505" y="870" width="140" height="60" as="geometry" />
        </mxCell>
        <mxCell id="-UEbHcT61im6ldXxAbTl-74" value="&lt;h1 class=&quot;menu_header&quot; style=&quot;margin: 0px 0px 3px; padding-top: 10px; font-family: &amp;quot;pt sans&amp;quot;, sans-serif; background-color: rgb(255, 255, 255); font-weight: normal; font-size: 12px;&quot;&gt;Кафедра исторического и обществоведческого образования&lt;/h1&gt;" style="rounded=0;whiteSpace=wrap;html=1;labelBackgroundColor=none;fontSize=13;align=center;verticalAlign=top;" vertex="1" parent="1">
          <mxGeometry x="505" y="940" width="150" height="60" as="geometry" />
        </mxCell>
        <mxCell id="-UEbHcT61im6ldXxAbTl-76" value="&lt;h1 class=&quot;menu_header&quot; style=&quot;margin: 0px 0px 3px ; padding-top: 10px ; font-family: &amp;#34;pt sans&amp;#34; , sans-serif ; background-color: rgb(255 , 255 , 255) ; font-weight: normal ; font-size: 12px&quot;&gt;Кафедра истории Татарстана&lt;/h1&gt;" style="rounded=0;whiteSpace=wrap;html=1;labelBackgroundColor=none;fontSize=13;align=center;verticalAlign=top;" vertex="1" parent="1">
          <mxGeometry x="505" y="1010" width="105" height="50" as="geometry" />
        </mxCell>
        <mxCell id="-UEbHcT61im6ldXxAbTl-77" value="&lt;h1 class=&quot;menu_header&quot; style=&quot;margin: 0px 0px 3px ; padding-top: 10px ; font-family: &amp;#34;pt sans&amp;#34; , sans-serif ; background-color: rgb(255 , 255 , 255) ; font-weight: normal ; font-size: 12px&quot;&gt;Кафедра антропологии и этнографии&lt;/h1&gt;" style="rounded=0;whiteSpace=wrap;html=1;labelBackgroundColor=none;fontSize=13;align=center;verticalAlign=top;" vertex="1" parent="1">
          <mxGeometry x="505" y="1070" width="130" height="50" as="geometry" />
        </mxCell>
        <mxCell id="-UEbHcT61im6ldXxAbTl-78" value="&lt;h1 class=&quot;menu_header&quot; style=&quot;margin: 0px 0px 3px ; padding-top: 10px ; font-family: &amp;#34;pt sans&amp;#34; , sans-serif ; text-align: left ; background-color: rgb(255 , 255 , 255) ; font-weight: normal ; font-size: 12px&quot;&gt;Кафедра реставрации наследия&lt;/h1&gt;" style="rounded=0;whiteSpace=wrap;html=1;labelBackgroundColor=none;fontSize=13;align=center;verticalAlign=top;" vertex="1" parent="1">
          <mxGeometry x="505" y="1130" width="120" height="50" as="geometry" />
        </mxCell>
        <mxCell id="-UEbHcT61im6ldXxAbTl-79" value="&lt;h1 class=&quot;menu_header&quot; style=&quot;margin: 0px 0px 3px; padding-top: 10px; font-family: &amp;quot;pt sans&amp;quot;, sans-serif; text-align: left; font-weight: normal; font-size: 14px;&quot;&gt;Высшая школа исторических наук и всемирного культурного наследия&lt;/h1&gt;" style="text;html=1;strokeColor=none;fillColor=none;align=center;verticalAlign=middle;whiteSpace=wrap;rounded=0;labelBackgroundColor=#D4E1F5;fontSize=14;rotation=90;" vertex="1" parent="1">
          <mxGeometry x="458.12" y="924.38" width="443.75" height="20" as="geometry" />
        </mxCell>
        <mxCell id="-UEbHcT61im6ldXxAbTl-80" value="" style="rounded=1;whiteSpace=wrap;html=1;labelBackgroundColor=#D4E1F5;fontSize=14;align=center;verticalAlign=top;" vertex="1" parent="1">
          <mxGeometry x="480" y="1210" width="220" height="300" as="geometry" />
        </mxCell>
        <mxCell id="-UEbHcT61im6ldXxAbTl-81" value="&lt;h1 class=&quot;menu_header&quot; style=&quot;margin: 0px 0px 3px; padding-top: 10px; font-family: &amp;quot;pt sans&amp;quot;, sans-serif; text-align: left; font-weight: normal; font-size: 12px;&quot;&gt;Кафедра теории и практики перевода&lt;/h1&gt;" style="rounded=0;whiteSpace=wrap;html=1;labelBackgroundColor=none;fontSize=14;align=center;verticalAlign=top;" vertex="1" parent="1">
          <mxGeometry x="505" y="1230" width="115" height="50" as="geometry" />
        </mxCell>
        <mxCell id="-UEbHcT61im6ldXxAbTl-82" value="&lt;h1 class=&quot;menu_header&quot; style=&quot;margin: 0px 0px 3px ; padding-top: 10px ; font-family: &amp;#34;pt sans&amp;#34; , sans-serif ; text-align: left ; background-color: rgb(255 , 255 , 255) ; font-weight: normal ; font-size: 12px&quot;&gt;Кафедра европейских языков и культур&lt;/h1&gt;" style="rounded=0;whiteSpace=wrap;html=1;labelBackgroundColor=none;fontSize=14;align=center;verticalAlign=top;" vertex="1" parent="1">
          <mxGeometry x="505" y="1290" width="120" height="50" as="geometry" />
        </mxCell>
        <mxCell id="-UEbHcT61im6ldXxAbTl-83" value="&lt;h1 class=&quot;menu_header&quot; style=&quot;margin: 0px 0px 3px ; padding-top: 10px ; font-family: &amp;#34;pt sans&amp;#34; , sans-serif ; text-align: left ; background-color: rgb(255 , 255 , 255) ; font-weight: normal ; font-size: 12px&quot;&gt;Кафедра иностранных языков в сфере международных отношений&lt;/h1&gt;" style="rounded=0;whiteSpace=wrap;html=1;labelBackgroundColor=none;fontSize=14;align=center;verticalAlign=top;" vertex="1" parent="1">
          <mxGeometry x="505" y="1350" width="125" height="80" as="geometry" />
        </mxCell>
        <mxCell id="-UEbHcT61im6ldXxAbTl-84" value="&lt;h1 class=&quot;menu_header&quot; style=&quot;margin: 0px 0px 3px ; padding-top: 10px ; font-family: &amp;#34;pt sans&amp;#34; , sans-serif ; text-align: left ; background-color: rgb(255 , 255 , 255) ; font-weight: normal ; font-size: 12px&quot;&gt;Кафедра иностранных языков&lt;/h1&gt;" style="rounded=0;whiteSpace=wrap;html=1;labelBackgroundColor=none;fontSize=14;align=center;verticalAlign=top;" vertex="1" parent="1">
          <mxGeometry x="505" y="1440" width="120" height="50" as="geometry" />
        </mxCell>
        <mxCell id="-UEbHcT61im6ldXxAbTl-85" value="&lt;h1 class=&quot;menu_header&quot; style=&quot;margin: 0px 0px 3px; padding-top: 10px; font-size: 13px; font-family: &amp;quot;pt sans&amp;quot;, sans-serif; text-align: left; font-weight: normal;&quot;&gt;Высшая школа иностранных языков и перевода&lt;/h1&gt;" style="text;html=1;strokeColor=none;fillColor=none;align=center;verticalAlign=middle;whiteSpace=wrap;rounded=0;labelBackgroundColor=#D4E1F5;fontSize=13;rotation=90;" vertex="1" parent="1">
          <mxGeometry x="530" y="1350" width="300" height="20" as="geometry" />
        </mxCell>
        <mxCell id="-UEbHcT61im6ldXxAbTl-108" value="&lt;span style=&quot;color: rgb(34, 34, 34); font-family: &amp;quot;pt sans&amp;quot;, sans-serif; font-size: 14px; text-align: justify;&quot;&gt;Центр магистратуры и аспирантуры&lt;/span&gt;" style="rounded=1;whiteSpace=wrap;html=1;labelBackgroundColor=none;fontSize=13;align=center;verticalAlign=top;" vertex="1" parent="1">
          <mxGeometry x="1110" y="220" width="120" height="60" as="geometry" />
        </mxCell>
        <mxCell id="-UEbHcT61im6ldXxAbTl-109" value="&lt;h1 class=&quot;menu_header&quot; style=&quot;margin: 0px 0px 3px; padding-top: 10px; font-family: &amp;quot;pt sans&amp;quot;, sans-serif; font-weight: normal; font-size: 12px;&quot;&gt;&lt;font style=&quot;font-size: 12px;&quot;&gt;Центр развития компетенций &quot; UNIVERSUM + &quot;&lt;/font&gt;&lt;/h1&gt;" style="rounded=1;whiteSpace=wrap;html=1;labelBackgroundColor=none;fontSize=12;align=center;verticalAlign=middle;" vertex="1" parent="1">
          <mxGeometry x="1250" y="220" width="110" height="70" as="geometry" />
        </mxCell>
        <mxCell id="-UEbHcT61im6ldXxAbTl-110" value="&lt;h1 class=&quot;menu_header&quot; style=&quot;margin: 0px 0px 3px ; padding-top: 10px ; font-size: 14px ; font-family: &amp;#34;pt sans&amp;#34; , sans-serif ; background-color: rgb(255 , 255 , 255) ; font-weight: normal&quot;&gt;Билярская учебно-лабораторная база практики&lt;/h1&gt;" style="rounded=1;whiteSpace=wrap;html=1;labelBackgroundColor=none;fontSize=12;align=center;verticalAlign=middle;" vertex="1" parent="1">
          <mxGeometry x="930" y="210" width="150" height="70" as="geometry" />
        </mxCell>
        <mxCell id="-UEbHcT61im6ldXxAbTl-111" value="&lt;h1 class=&quot;menu_header&quot; style=&quot;margin: 0px 0px 3px ; padding-top: 10px ; font-family: &amp;#34;pt sans&amp;#34; , sans-serif ; background-color: rgb(255 , 255 , 255) ; font-weight: normal ; font-size: 13px&quot;&gt;Научно-образовательные центры и лаборатории&lt;/h1&gt;" style="rounded=1;whiteSpace=wrap;html=1;labelBackgroundColor=none;fontSize=12;align=center;verticalAlign=middle;" vertex="1" parent="1">
          <mxGeometry x="1380" y="215" width="140" height="80" as="geometry" />
        </mxCell>
        <mxCell id="-UEbHcT61im6ldXxAbTl-112" value="&lt;span style=&quot;font-family: &amp;#34;pt sans&amp;#34; , sans-serif ; text-align: justify ; background-color: rgb(255 , 255 , 255)&quot;&gt;&lt;span style=&quot;cursor: pointer&quot;&gt;&lt;font style=&quot;font-size: 13px&quot;&gt;Центр профориентационной работы и международного сотрудничества&lt;/font&gt;&lt;br&gt;&lt;/span&gt;&lt;/span&gt;" style="rounded=1;whiteSpace=wrap;html=1;labelBackgroundColor=none;fontSize=12;align=center;verticalAlign=middle;" vertex="1" parent="1">
          <mxGeometry x="1480" y="110" width="140" height="90" as="geometry" />
        </mxCell>
      </root>
    </mxGraphModel>
  </diagram>
</mxfile>
